<svg xmlns="http://www.w3.org/2000/svg" width="120" height="120" viewBox="0 0 120 120" role="img" aria-label="Dimitra Beach Apartments – Emblem (Haus mit Palmen)">
  <circle cx="60" cy="60" r="52" fill="none" stroke="#2D8AA8" stroke-width="2.4"/>
  <g fill="none" stroke="#2D8AA8" stroke-width="3" stroke-linecap="round" stroke-linejoin="round">
    <polyline points="28,52 60,30 92,52"/>
    <path d="M32 52 V90"/>
    <path d="M88 52 V90"/>
    <path d="M32 90 H88"/>
  </g>
  <g fill="none" stroke="#2D8AA8" stroke-width="2.6" stroke-linecap="round" stroke-linejoin="round">
    <path d="M50 90 Q47 72 45 55"/>
    <path d="M64 90 Q67 72 69 55"/>
    <path d="M45 55 Q37 54 33 59"/>
    <path d="M45 55 Q38 48 33 50"/>
    <path d="M45 55 Q45 47 43 42"/>
    <path d="M45 55 Q51 52 54 56"/>
    <path d="M69 55 Q77 54 81 59"/>
    <path d="M69 55 Q76 48 81 50"/>
    <path d="M69 55 Q69 47 71 42"/>
    <path d="M69 55 Q63 52 60 56"/>
    <path d="M56 90 Q57 85 59 89"/>
    <path d="M60 89 Q62 85 63 90"/>
  </g>
  <circle cx="45" cy="56.5" r="1.5" fill="#2D8AA8"/>
  <circle cx="69" cy="56.5" r="1.5" fill="#2D8AA8"/>
</svg>
