<svg xmlns="http://www.w3.org/2000/svg" width="470" height="150" viewBox="0 0 470 150" role="img" aria-label="Dimitra Beach Apartments">
  <defs><style>@import url('https://fonts.googleapis.com/css2?family=Cormorant+Garamond:wght@600&amp;family=Sacramento&amp;display=swap');
  .w{font-family:'Cormorant Garamond',serif;font-weight:600;fill:#33302B;font-size:37px;letter-spacing:5px}
  .s{font-family:'Sacramento',cursive;fill:#2D8AA8;font-size:40px}</style></defs>
  <circle cx="72" cy="75" r="52" fill="none" stroke="#2D8AA8" stroke-width="2"/>
  <g transform="translate(12,15)" fill="none" stroke="#2D8AA8" stroke-width="3" stroke-linecap="round" stroke-linejoin="round">
    <polyline points="52,60 67,45 82,60"/>
    <path d="M55 60 V85 H79 V60"/>
    <path d="M63 85 V73 H71 V85"/>
    <path d="M41 85 Q37 68 44 53"/>
    <path d="M44 53 Q31 49 25 56"/>
    <path d="M44 53 Q36 43 26 44"/>
    <path d="M44 53 Q44 45 42 39"/>
    <path d="M44 53 Q51 46 58 49"/>
    <path d="M44 53 Q50 52 56 58"/>
    <path d="M32 95 q9 -7 18 0 t18 0 t18 0" stroke-width="2.6"/>
  </g>
  <circle cx="56" cy="70" r="1.8" fill="#2D8AA8"/>
  <text class="w" x="150" y="68">DIMITRA BEACH</text>
  <text class="s" x="152" y="112">Apartments</text>
</svg>
