<svg xmlns="http://www.w3.org/2000/svg" width="340" height="240" viewBox="0 0 340 240" role="img" aria-label="Dimitra Beach Apartments">
  <defs><style>@import url('https://fonts.googleapis.com/css2?family=Cormorant+Garamond:wght@600&amp;family=Sacramento&amp;display=swap');
  .w{font-family:'Cormorant Garamond',serif;font-weight:600;fill:#33302B;font-size:32px;letter-spacing:6px}
  .s{font-family:'Sacramento',cursive;fill:#2D8AA8;font-size:40px}</style></defs>
  <circle cx="170" cy="66" r="52" fill="none" stroke="#2D8AA8" stroke-width="2"/>
  <g transform="translate(110,6)" fill="none" stroke="#2D8AA8" stroke-width="3" stroke-linecap="round" stroke-linejoin="round">
    <polyline points="52,60 67,45 82,60"/>
    <path d="M55 60 V85 H79 V60"/>
    <path d="M63 85 V73 H71 V85"/>
    <path d="M35 88 V56"/>
    <path d="M24 57 Q24 50 30 49 Q31 45 35 46 Q37 43 39 46 Q44 45 45 50 Q49 51 47 57 Q36 55 24 57 Z"/>
    <path d="M30 95 q9 -7 18 0 t18 0 t18 0" stroke-width="2.6"/>
  </g>
  <circle cx="196" cy="39" r="6" fill="#2D8AA8"/>
  <text class="w" x="173" y="162" text-anchor="middle">DIMITRA BEACH</text>
  <text class="s" x="170" y="207" text-anchor="middle">Apartments</text>
</svg>
