<svg xmlns="http://www.w3.org/2000/svg" width="120" height="120" viewBox="0 0 120 120" role="img" aria-label="Dimitra Beach Apartments – Emblem (Haus, Pinie, Sonne)">
  <circle cx="60" cy="60" r="52" fill="none" stroke="#2D8AA8" stroke-width="2.4"/>
  <g fill="none" stroke="#2D8AA8" stroke-width="3" stroke-linecap="round" stroke-linejoin="round">
    <polyline points="52,60 67,45 82,60"/>
    <path d="M55 60 V85 H79 V60"/>
    <path d="M63 85 V73 H71 V85"/>
    <path d="M35 88 V56"/>
    <path d="M24 57 Q24 50 30 49 Q31 45 35 46 Q37 43 39 46 Q44 45 45 50 Q49 51 47 57 Q36 55 24 57 Z"/>
    <path d="M30 95 q9 -7 18 0 t18 0 t18 0" stroke-width="2.6"/>
  </g>
  <circle cx="86" cy="33" r="6" fill="#2D8AA8"/>
</svg>
