<svg xmlns="http://www.w3.org/2000/svg" width="470" height="150" viewBox="0 0 470 150" role="img" aria-label="Dimitra Beach Apartments">
  <defs><style>@import url('https://fonts.googleapis.com/css2?family=Cormorant+Garamond:wght@600&amp;family=Sacramento&amp;display=swap');
  .w{font-family:'Cormorant Garamond',serif;font-weight:600;fill:#33302B;font-size:37px;letter-spacing:5px}
  .s{font-family:'Sacramento',cursive;fill:#2D8AA8;font-size:40px}</style></defs>
  <circle cx="72" cy="75" r="52" fill="none" stroke="#2D8AA8" stroke-width="2.2"/>
  <g transform="translate(12,15)">
    <g fill="#2D8AA8">
      <circle cx="54" cy="38" r="11"/><circle cx="44" cy="41" r="7"/><circle cx="64" cy="40" r="8"/>
      <circle cx="50" cy="33" r="6"/><circle cx="60" cy="33" r="6"/><circle cx="46" cy="36" r="5"/>
      <circle cx="70" cy="38" r="5.5"/><circle cx="57" cy="31" r="5"/><circle cx="38" cy="42" r="5"/>
      <circle cx="29" cy="47" r="8"/><circle cx="22" cy="48" r="5"/><circle cx="35" cy="45" r="5"/><circle cx="26" cy="44" r="4"/><circle cx="33" cy="50" r="4"/>
      <circle cx="83" cy="47" r="8"/><circle cx="90" cy="48" r="4.5"/><circle cx="76" cy="46" r="6"/><circle cx="86" cy="43" r="4"/><circle cx="79" cy="51" r="4"/>
    </g>
    <g fill="none" stroke="#2D8AA8" stroke-linecap="round" stroke-linejoin="round">
      <path d="M43 82 Q40 72 46 64 Q50 58 49 53" stroke-width="4"/>
      <g stroke-width="2.4">
        <path d="M48 55 Q40 52 30 48"/><path d="M49 53 Q44 47 41 43"/><path d="M50 52 Q53 44 56 39"/><path d="M50 54 Q66 52 82 48"/><path d="M68 50 Q74 45 80 43"/>
      </g>
    </g>
    <g fill="none" stroke="#2D8AA8" stroke-width="2.6" stroke-linecap="round" stroke-linejoin="round">
      <polyline points="57,71 70,59 83,71"/><path d="M61 71 V82 H79 V71"/><path d="M67 74 H76 V80 H67 Z"/><path d="M71.5 74 V80"/><path d="M67 77 H76"/>
    </g>
    <g fill="none" stroke="#2D8AA8" stroke-linecap="round" stroke-linejoin="round">
      <path d="M22 85 Q40 78 62 81 Q82 84 98 78" stroke-width="2.4"/>
      <path d="M38 92 Q51 87 63 91 Q73 94 85 89" stroke-width="2.6"/>
      <path d="M50 96 Q60 93 70 96" stroke-width="2.2"/>
    </g>
  </g>
  <text class="w" x="150" y="68">DIMITRA BEACH</text>
  <text class="s" x="152" y="112">Apartments</text>
</svg>
