<svg xmlns="http://www.w3.org/2000/svg" width="120" height="120" viewBox="0 0 120 120" role="img" aria-label="Dimitra Beach Apartments – Emblem (Haus mit Pinie, zwei Wellen)">
  <circle cx="60" cy="60" r="52" fill="none" stroke="#2D8AA8" stroke-width="2.4"/>
  <g fill="none" stroke="#2D8AA8" stroke-width="3" stroke-linecap="round" stroke-linejoin="round">
    <polyline points="33,52 60,30 87,52"/>
    <path d="M33 52 V86"/>
    <path d="M87 52 V86"/>
    <path d="M33 86 H87"/>
  </g>
  <g fill="#2D8AA8">
    <circle cx="60" cy="45" r="8"/><circle cx="53" cy="47" r="5.5"/><circle cx="67" cy="47" r="6"/>
    <circle cx="57" cy="41" r="5"/><circle cx="64" cy="41" r="5"/><circle cx="60" cy="39" r="4.5"/>
    <circle cx="46" cy="49" r="5"/><circle cx="42" cy="49" r="3.5"/><circle cx="50" cy="47" r="4"/>
    <circle cx="74" cy="49" r="5"/><circle cx="78" cy="49" r="3.5"/><circle cx="70" cy="47" r="4"/>
  </g>
  <g fill="none" stroke="#2D8AA8" stroke-linecap="round" stroke-linejoin="round">
    <path d="M58 86 Q56 74 59 64 Q61 58 60 54" stroke-width="3"/>
    <g stroke-width="2.2">
      <path d="M59 56 Q52 53 46 51"/>
      <path d="M60 55 Q68 53 75 51"/>
      <path d="M60 54 Q61 49 62 46"/>
    </g>
  </g>
  <g fill="none" stroke="#2D8AA8" stroke-width="2.6" stroke-linecap="round" stroke-linejoin="round">
    <path d="M38 92 q11 -5 22 0 t22 0"/>
    <path d="M38 98 q11 -5 22 0 t22 0"/>
  </g>
</svg>
